<svg width="188" height="188" viewBox="0 0 188 188" fill="none" xmlns="http://www.w3.org/2000/svg">
<path fill-rule="evenodd" clip-rule="evenodd" d="M94 7.83333C46.4125 7.83333 7.83337 46.4125 7.83337 94C7.83337 141.587 46.4125 180.167 94 180.167C141.588 180.167 180.167 141.587 180.167 94C180.167 46.4125 141.588 7.83333 94 7.83333ZM101.833 125.333C101.833 127.411 101.008 129.403 99.539 130.872C98.07 132.341 96.0776 133.167 94 133.167C91.9225 133.167 89.9301 132.341 88.461 130.872C86.992 129.403 86.1667 127.411 86.1667 125.333V101.833H62.6667C60.5892 101.833 58.5967 101.008 57.1277 99.539C55.6587 98.07 54.8334 96.0775 54.8334 94C54.8334 91.9225 55.6587 89.93 57.1277 88.461C58.5967 86.992 60.5892 86.1667 62.6667 86.1667H86.1667V62.6667C86.1667 60.5891 86.992 58.5967 88.461 57.1277C89.9301 55.6586 91.9225 54.8333 94 54.8333C96.0776 54.8333 98.07 55.6586 99.539 57.1277C101.008 58.5967 101.833 60.5891 101.833 62.6667V86.1667H125.333C127.411 86.1667 129.403 86.992 130.872 88.461C132.341 89.93 133.167 91.9225 133.167 94C133.167 96.0775 132.341 98.07 130.872 99.539C129.403 101.008 127.411 101.833 125.333 101.833H101.833V125.333Z" fill="#844F00"/>
</svg>
