<svg width="188" height="188" viewBox="0 0 188 188" fill="none" xmlns="http://www.w3.org/2000/svg">
<path d="M173.437 8H14.8932C11.0804 8 8 11.0804 8 14.8932V173.437C8 177.25 11.0804 180.33 14.8932 180.33H173.437C177.25 180.33 180.33 177.25 180.33 173.437V14.8932C180.33 11.0804 177.25 8 173.437 8ZM94.4019 95.479L53.0428 130.16C51.9226 131.108 50.2208 130.311 50.2208 128.846V115.34C50.2208 114.845 50.4578 114.349 50.8455 114.026L74.4978 94.165L50.8455 74.304C50.6475 74.1476 50.4882 73.9477 50.3799 73.7198C50.2715 73.492 50.2171 73.2422 50.2208 72.99V59.4836C50.2208 58.0188 51.9226 57.2218 53.0428 58.1696L94.4019 92.8294C95.2421 93.5188 95.2421 94.7897 94.4019 95.479ZM138.109 128.846C138.109 129.794 137.377 130.57 136.494 130.57H96.6422C95.759 130.57 95.0266 129.794 95.0266 128.846V118.507C95.0266 117.559 95.759 116.783 96.6422 116.783H136.494C137.377 116.783 138.109 117.559 138.109 118.507V128.846Z" fill="#844F00"/>
</svg>
