<svg width="1440" height="900" viewBox="0 0 1440 900" fill="none" xmlns="http://www.w3.org/2000/svg">
<g clip-path="url(#clip0_215_3113)">
<path d="M1440 0H0V900H1440V0Z" fill="#FFB546"/>
<path d="M265.6 745.5C280 782.55 264.48 832.8 229.12 856.65C193.76 880.5 138.56 877.95 104.64 853.65C70.7201 829.2 58.08 782.85 71.36 747.15C84.64 711.6 124 686.4 165.6 685.65C207.36 684.9 251.36 708.6 265.6 745.5Z" fill="#FFC062"/>
<path d="M1325.12 808.8C1339.36 846 1324.8 895.5 1290.4 918.9C1255.84 942.3 1201.44 939.75 1169.28 916.05C1137.28 892.35 1127.68 847.5 1140.8 811.65C1153.92 775.65 1189.76 748.65 1229.12 747.6C1268.32 746.55 1311.04 771.45 1325.12 808.8Z" fill="#FFC062"/>
<path d="M262.88 84.15C276.8 121.2 257.6 171.3 220.16 196.65C182.56 221.85 126.72 222.3 89.44 197.25C52.16 172.35 33.4399 121.8 47.5199 84.45C61.5999 47.25 108.48 23.25 155.2 23.1C202.08 23.1 248.96 47.1 262.88 84.15Z" fill="#FFC062"/>
<path d="M124 447.9C136.96 485.4 129.12 529.2 99.36 550.95C69.6001 572.7 17.9201 572.1 -12.1599 550.2C-42.2399 528.15 -50.8799 484.8 -38.0799 447.6C-25.2799 410.4 8.96006 379.65 43.0401 379.65C77.1201 379.65 111.04 410.55 124 447.9Z" fill="#FFC062"/>
<path d="M926.08 638.1C937.44 670.8 924.96 710.7 896.8 729.9C868.48 749.1 824.32 747.6 790.24 726.15C756.16 704.55 731.84 662.85 742.72 630.9C753.44 598.95 799.04 576.75 839.52 578.25C879.84 579.9 914.72 605.55 926.08 638.1Z" fill="#FFC062"/>
<path d="M532.64 862.95C545.12 896.85 536.64 939.45 509.28 958.05C481.92 976.8 436 971.4 403.04 949.05C370.24 926.7 350.4 887.25 360.96 856.05C371.36 824.85 412.16 801.9 449.28 802.95C486.4 804 520.16 829.2 532.64 862.95Z" fill="#FFC062"/>
<path d="M940.32 255.6C952.48 292.35 942.24 334.2 912.8 355.35C883.36 376.35 834.4 376.65 803.04 355.2C771.84 333.6 757.92 290.25 770.24 253.35C782.4 216.3 820.8 185.7 857.28 186.3C893.6 186.9 928.16 218.7 940.32 255.6Z" fill="#FFC062"/>
<path d="M1284 12.75C1298.24 50.1 1284.64 99.6 1250.56 122.7C1216.64 145.8 1162.24 142.5 1127.2 117.75C1092 93 1076 46.95 1088.96 11.25C1101.92 -24.3 1143.68 -49.35 1185.76 -49.35C1227.68 -49.5 1269.76 -24.45 1284 12.75Z" fill="#FFC062"/>
<path d="M1351.84 298.95C1364.48 332.4 1347.84 377.55 1315.52 398.7C1283.2 419.85 1235.2 417.15 1203.04 395.1C1171.04 372.9 1154.88 331.35 1166.4 299.25C1177.92 267.15 1216.96 244.5 1257.28 244.05C1297.76 243.6 1339.36 265.5 1351.84 298.95Z" fill="#FFC062"/>
<path d="M627.52 262.65C640.8 298.65 623.52 346.35 590.08 367.8C556.64 389.4 507.04 384.75 474.56 361.65C442.08 338.7 426.88 297.3 438.4 263.7C449.76 230.1 488.16 204 529.28 203.25C570.24 202.35 614.24 226.65 627.52 262.65Z" fill="#FFC062"/>
<path d="M612.32 567C626.72 604.5 609.28 655.65 574.72 677.55C540.16 699.45 488.48 691.8 452.8 666.9C417.12 641.85 397.6 599.25 409.12 565.35C420.64 531.6 463.04 506.55 507.36 505.95C551.68 505.35 597.92 529.35 612.32 567Z" fill="#FFC062"/>
<path d="M1513.44 587.85C1524.8 623.7 1513.44 663.6 1486.24 681.75C1459.04 700.05 1416 696.6 1385.44 676.05C1354.88 655.5 1336.64 617.7 1346.72 583.5C1356.8 549.45 1395.2 518.85 1431.52 519.6C1467.84 520.2 1501.92 552 1513.44 587.85Z" fill="#FFC062"/>
<path d="M796.16 -2.54998C810.4 34.35 802.72 82.5 772.8 103.2C742.72 123.9 690.56 117.15 654.4 91.95C618.08 66.75 597.76 23.1 609.6 -10.35C621.28 -43.95 664.96 -67.35 705.12 -66.15C745.28 -65.1 781.76 -39.45 796.16 -2.54998Z" fill="#FFC062"/>
</g>
<defs>
<clipPath id="clip0_215_3113">
<rect width="1440" height="900" fill="white"/>
</clipPath>
</defs>
</svg>
