<svg width="59" height="66" viewBox="0 0 59 66" fill="none" xmlns="http://www.w3.org/2000/svg">
<path d="M17.125 2.9375C17.125 2.32419 17.3686 1.73599 17.8023 1.30232C18.236 0.868638 18.8242 0.625 19.4375 0.625H37.9375C38.5508 0.625 39.139 0.868638 39.5727 1.30232C40.0064 1.73599 40.25 2.32419 40.25 2.9375C40.25 3.55081 40.0064 4.13901 39.5727 4.57268C39.139 5.00636 38.5508 5.25 37.9375 5.25H19.4375C18.8242 5.25 18.236 5.00636 17.8023 4.57268C17.3686 4.13901 17.125 3.55081 17.125 2.9375ZM28.6875 65.375C36.0473 65.375 43.1056 62.4513 48.3097 57.2472C53.5138 52.0431 56.4375 44.9848 56.4375 37.625C56.4375 30.2652 53.5138 23.2069 48.3097 18.0028C43.1056 12.7987 36.0473 9.875 28.6875 9.875C21.3277 9.875 14.2694 12.7987 9.06529 18.0028C3.86115 23.2069 0.9375 30.2652 0.9375 37.625C0.9375 44.9848 3.86115 52.0431 9.06529 57.2472C14.2694 62.4513 21.3277 65.375 28.6875 65.375ZM28.6875 19.125C29.3008 19.125 29.889 19.3686 30.3227 19.8023C30.7564 20.236 31 20.8242 31 21.4375V39.9375C31 40.5508 30.7564 41.139 30.3227 41.5727C29.889 42.0064 29.3008 42.25 28.6875 42.25C28.0742 42.25 27.486 42.0064 27.0523 41.5727C26.6186 41.139 26.375 40.5508 26.375 39.9375V21.4375C26.375 20.8242 26.6186 20.236 27.0523 19.8023C27.486 19.3686 28.0742 19.125 28.6875 19.125ZM51.5951 8.21925C51.3818 7.99838 51.1266 7.82221 50.8445 7.70101C50.5624 7.57982 50.2589 7.51603 49.9519 7.51336C49.6448 7.51069 49.3403 7.5692 49.0561 7.68547C48.7719 7.80175 48.5137 7.97346 48.2966 8.19059C48.0795 8.40771 47.9077 8.66591 47.7915 8.95011C47.6752 9.2343 47.6167 9.53881 47.6194 9.84587C47.622 10.1529 47.6858 10.4564 47.807 10.7385C47.9282 11.0206 48.1044 11.2758 48.3253 11.4891L54.8141 17.978C55.0274 18.1989 55.2826 18.375 55.5648 18.4962C55.8469 18.6174 56.1503 18.6812 56.4574 18.6839C56.7644 18.6866 57.0689 18.628 57.3531 18.5118C57.6373 18.3955 57.8955 18.2238 58.1127 18.0067C58.3298 17.7895 58.5015 17.5313 58.6178 17.2471C58.7341 16.9629 58.7926 16.6584 58.7899 16.3514C58.7872 16.0443 58.7234 15.7409 58.6022 15.4588C58.481 15.1766 58.3049 14.9214 58.084 14.7081L51.5951 8.21925Z" fill="#FFF1DC"/>
</svg>
